<svg width="720" height="560" viewBox="0 0 720 560" fill="none" xmlns="http://www.w3.org/2000/svg">
  <rect width="720" height="560" rx="40" fill="#FFF5E7"/>
  <circle cx="144" cy="116" r="66" fill="#F7B267"/>
  <circle cx="588" cy="116" r="42" fill="#BFD7EA"/>
  <rect x="90" y="146" width="540" height="320" rx="32" fill="white" stroke="#D8E1E8" stroke-width="6"/>
  <rect x="122" y="178" width="180" height="236" rx="26" fill="#173F5F"/>
  <rect x="140" y="204" width="144" height="160" rx="18" fill="#F4F9FF"/>
  <rect x="166" y="384" width="92" height="12" rx="6" fill="#6F8AA5"/>
  <path d="M334 214C334 180.863 360.863 154 394 154H532C565.137 154 592 180.863 592 214V314C592 347.137 565.137 374 532 374H394C360.863 374 334 347.137 334 314V214Z" fill="#EAF4FF"/>
  <path d="M384 244H544" stroke="#2A9D8F" stroke-width="20" stroke-linecap="round"/>
  <path d="M384 286H502" stroke="#F4A261" stroke-width="20" stroke-linecap="round"/>
  <path d="M384 328H466" stroke="#E76F51" stroke-width="20" stroke-linecap="round"/>
  <circle cx="546" cy="426" r="64" fill="#1D4E89"/>
  <path d="M523 426H569" stroke="white" stroke-width="12" stroke-linecap="round"/>
  <path d="M546 403V449" stroke="white" stroke-width="12" stroke-linecap="round"/>
  <path d="M364 418C387.196 394.804 424.804 394.804 448 418" stroke="#E76F51" stroke-width="18" stroke-linecap="round"/>
  <path d="M362 454C384.539 431.461 421.461 431.461 444 454" stroke="#F4A261" stroke-width="18" stroke-linecap="round"/>
  <circle cx="404" cy="428" r="16" fill="#1D4E89"/>
  <rect x="264" y="414" width="68" height="68" rx="22" fill="#F7B267"/>
  <path d="M287 447H309" stroke="#173F5F" stroke-width="10" stroke-linecap="round"/>
  <path d="M298 436V458" stroke="#173F5F" stroke-width="10" stroke-linecap="round"/>
  <path d="M224 248C224 230.327 238.327 216 256 216H270C287.673 216 302 230.327 302 248V318H224V248Z" fill="#E76F51"/>
  <circle cx="263" cy="196" r="26" fill="#F0C7A1"/>
  <path d="M240 192C242.756 171.493 260.304 156 281 156C285.583 156 290.04 156.761 294.2 158.163C286.906 145.962 273.575 138 258.4 138C235.103 138 216 157.103 216 180.4C216 194.914 223.42 207.853 234.735 215.485C233.044 208.237 232.518 200.323 233.4 192H240Z" fill="#173F5F"/>
  <path d="M454 201C471.673 201 486 186.673 486 169C486 151.327 471.673 137 454 137C436.327 137 422 151.327 422 169C422 186.673 436.327 201 454 201Z" fill="#F0C7A1"/>
  <path d="M414 234C414 214.118 430.118 198 450 198H458C477.882 198 494 214.118 494 234V248H414V234Z" fill="#2A9D8F"/>
  <path d="M429 163C429 149.193 440.193 138 454 138V138C467.807 138 479 149.193 479 163V168H429V163Z" fill="#173F5F"/>
</svg>
